<svg width="28" height="53" viewBox="0 0 28 53" fill="none" xmlns="http://www.w3.org/2000/svg">
<path d="M1.45139 1.35268C1.06434 1.74894 0.847656 2.28089 0.847656 2.83481C0.847656 3.38873 1.06434 3.92068 1.45139 4.31693L23.0753 26.5L1.45139 48.6786C1.06434 49.0749 0.847656 49.6068 0.847656 50.1607C0.847656 50.7147 1.06434 51.2466 1.45139 51.6429C1.63952 51.8361 1.86446 51.9897 2.11292 52.0945C2.36138 52.1994 2.62833 52.2534 2.89802 52.2534C3.1677 52.2534 3.43465 52.1994 3.68311 52.0945C3.93157 51.9897 4.15651 51.8361 4.34464 51.6429L27.3398 28.0487C27.7436 27.6343 27.9697 27.0786 27.9697 26.5C27.9697 25.9214 27.7436 25.3657 27.3398 24.9513L4.34464 1.35712C4.15651 1.1639 3.93157 1.01032 3.68311 0.905458C3.43465 0.800593 3.1677 0.746567 2.89802 0.746567C2.62833 0.746567 2.36138 0.800593 2.11292 0.905458C1.86446 1.01032 1.63952 1.1639 1.45139 1.35712V1.35268Z" fill="#DBDBDB"/>
</svg>
