<svg width="28" height="53" viewBox="0 0 28 53" fill="none" xmlns="http://www.w3.org/2000/svg">
<path d="M27.366 51.6473C27.753 51.2511 27.9697 50.7191 27.9697 50.1652C27.9697 49.6113 27.753 49.0793 27.366 48.6831L5.74206 26.5L27.366 4.32137C27.753 3.92511 27.9697 3.39317 27.9697 2.83925C27.9697 2.28533 27.753 1.75338 27.366 1.35712C27.1779 1.1639 26.9529 1.01032 26.7045 0.905456C26.456 0.800594 26.1891 0.74657 25.9194 0.74657C25.6497 0.74657 25.3827 0.800594 25.1343 0.905456C24.8858 1.01032 24.6609 1.1639 24.4727 1.35712L1.47762 24.9513C1.07375 25.3657 0.847712 25.9214 0.847712 26.5C0.847712 27.0786 1.07375 27.6343 1.47762 28.0487L24.4727 51.6429C24.6609 51.8361 24.8858 51.9897 25.1343 52.0945C25.3827 52.1994 25.6497 52.2534 25.9194 52.2534C26.1891 52.2534 26.456 52.1994 26.7045 52.0945C26.9529 51.9897 27.1779 51.8361 27.366 51.6429L27.366 51.6473Z" fill="#DBDBDB"/>
</svg>
